<svg xmlns="http://www.w3.org/2000/svg" viewBox="0 0 720 160" font-family="sans-serif"><text x="24" y="16" font-size="12" fill="#333">日访问量 2026-09-01 ~ 09-30（PV·含事件·合计 31）</text><rect x="25.0" y="72.0" width="20.4" height="64.0" fill="#c8463a"/><text x="35.2" y="148" font-size="9" text-anchor="middle" fill="#666">01</text><rect x="47.4" y="120.0" width="20.4" height="16.0" fill="#c8463a"/><text x="57.6" y="148" font-size="9" text-anchor="middle" fill="#666">02</text><rect x="69.8" y="136.0" width="20.4" height="0.0" fill="#c8463a"/><rect x="92.2" y="120.0" width="20.4" height="16.0" fill="#c8463a"/><text x="102.4" y="148" font-size="9" text-anchor="middle" fill="#666">04</text><rect x="114.6" y="120.0" width="20.4" height="16.0" fill="#c8463a"/><text x="124.8" y="148" font-size="9" text-anchor="middle" fill="#666">05</text><rect x="137.0" y="136.0" width="20.4" height="0.0" fill="#c8463a"/><rect x="159.4" y="136.0" width="20.4" height="0.0" fill="#c8463a"/><rect x="181.8" y="120.0" width="20.4" height="16.0" fill="#c8463a"/><text x="192.0" y="148" font-size="9" text-anchor="middle" fill="#666">08</text><rect x="204.2" y="136.0" width="20.4" height="0.0" fill="#c8463a"/><rect x="226.6" y="136.0" width="20.4" height="0.0" fill="#c8463a"/><rect x="249.0" y="136.0" width="20.4" height="0.0" fill="#c8463a"/><rect x="271.4" y="136.0" width="20.4" height="0.0" fill="#c8463a"/><rect x="293.8" y="104.0" width="20.4" height="32.0" fill="#c8463a"/><text x="304.0" y="148" font-size="9" text-anchor="middle" fill="#666">13</text><rect x="316.2" y="136.0" width="20.4" height="0.0" fill="#c8463a"/><rect x="338.6" y="120.0" width="20.4" height="16.0" fill="#c8463a"/><text x="348.8" y="148" font-size="9" text-anchor="middle" fill="#666">15</text><rect x="361.0" y="136.0" width="20.4" height="0.0" fill="#c8463a"/><rect x="383.4" y="120.0" width="20.4" height="16.0" fill="#c8463a"/><text x="393.6" y="148" font-size="9" text-anchor="middle" fill="#666">17</text><rect x="405.8" y="72.0" width="20.4" height="64.0" fill="#c8463a"/><text x="416.0" y="148" font-size="9" text-anchor="middle" fill="#666">18</text><rect x="428.2" y="24.0" width="20.4" height="112.0" fill="#c8463a"/><text x="438.4" y="148" font-size="9" text-anchor="middle" fill="#666">19</text><rect x="450.6" y="88.0" width="20.4" height="48.0" fill="#c8463a"/><text x="460.8" y="148" font-size="9" text-anchor="middle" fill="#666">20</text><rect x="473.0" y="104.0" width="20.4" height="32.0" fill="#c8463a"/><text x="483.2" y="148" font-size="9" text-anchor="middle" fill="#666">21</text><rect x="495.4" y="136.0" width="20.4" height="0.0" fill="#c8463a"/><rect x="517.8" y="120.0" width="20.4" height="16.0" fill="#c8463a"/><text x="528.0" y="148" font-size="9" text-anchor="middle" fill="#666">23</text><rect x="540.2" y="136.0" width="20.4" height="0.0" fill="#c8463a"/><rect x="562.6" y="136.0" width="20.4" height="0.0" fill="#c8463a"/><rect x="585.0" y="104.0" width="20.4" height="32.0" fill="#c8463a"/><text x="595.2" y="148" font-size="9" text-anchor="middle" fill="#666">26</text><rect x="607.4" y="136.0" width="20.4" height="0.0" fill="#c8463a"/><rect x="629.8" y="136.0" width="20.4" height="0.0" fill="#c8463a"/><rect x="652.2" y="136.0" width="20.4" height="0.0" fill="#c8463a"/><rect x="674.6" y="72.0" width="20.4" height="64.0" fill="#c8463a"/><text x="684.8" y="148" font-size="9" text-anchor="middle" fill="#666">30</text></svg>